<?xml version="1.0" encoding="utf-8"?>
<!-- Generator: Adobe Illustrator 23.1.0, SVG Export Plug-In . SVG Version: 6.00 Build 0)  -->
<svg version="1.1" id="Layer_1" xmlns="http://www.w3.org/2000/svg" xmlns:xlink="http://www.w3.org/1999/xlink" x="0px" y="0px"
	 viewBox="0 0 750.1 189.8" style="enable-background:new 0 0 750.1 189.8;" xml:space="preserve">
<style type="text/css">
	.st0{fill:#F58321;}
	.st1{fill:#09A752;}
	.st2{fill:#FFFFFF;}
	.st3{fill:#B0DCC4;}
</style>
<title>OrangeHRM_Logo</title>
<path class="st0" d="M76.6,61.1c3.4-1.3,6.6-2.1,9.6-3c7-2.1,14-1.8,21.1-0.3c10,2.1,19.4,6.4,27.6,12.7
	c8.7,6.7,14.3,15.5,17.6,25.9c6.4,20.7,1.9,45.5-12.3,62c-13.3,15.5-30,24.9-50.4,27.5c-17.6,2.2-34-1.4-49.5-9.7
	c-11.3-6-21-14.7-28.1-25.4C5.6,141,1.4,130.5,0.3,118.8c-1.5-16.2,3.4-30.3,14.2-42.4c3.4-3.8,7.3-7.1,11.7-9.8
	c7.4-4.6,16.3-6.1,24.8-4.3c9.2,1.9,17.6,5.3,25,11.1c5.4,4.3,9.5,9.4,11.4,16.2c0.2,0.9,0.4,1.8,0.6,2.7c0.1,0.5,0.3,1.2-0.4,1.4
	s-1.4,0.5-2-0.3c-0.5-0.6-0.9-1.2-1.4-1.7C76.2,82.5,65,76.6,52.9,75.3c-3.1-0.4-6.2-0.3-9.2,0.2c-4.2,0.7-8.1,2.7-11.1,5.8
	c-8.5,8.5-13.3,18.7-12.5,30.9c0.6,8.5,3.9,16.1,9,22.9c8.2,10.9,19.8,18.7,32.9,22.3c16.7,4.7,33,3.6,48.5-4.4
	c8-4.1,14.7-9.6,19.2-17.6c3.3-5.9,5.4-12.3,6.3-19c0.7-5.1,0.7-10.3,0.1-15.4c-0.8-5.8-3.3-11.2-7-15.6c-6-7.5-13.9-13.3-22.8-16.8
	c-7.3-3-15-4.7-22.7-6.1C81.4,62.1,79.2,61.6,76.6,61.1z"/>
<path class="st1" d="M706.7,126.8c2.7-4.9,5.3-9.7,7.8-14.5c6.8-12.7,13.6-25.3,20.5-37.9c0.3-1,1.3-1.6,2.3-1.5
	c1.3,0.1,3-0.6,3.9,0.2s0.6,2.6,0.8,4c1.1,9.1,2.1,18.1,3.1,27.2c0.7,6.5,1.4,13.1,2.2,19.6c0.8,7,1.6,14,2.7,21l0.1,0.4
	c0.3,1.9,0.3,1.9-1.7,1.6c-3.5-0.4-7-0.3-10.4,0.1c-1.9,0.2-2,0.2-2.1-1.8c-0.4-4.6-0.7-9.2-1.1-13.8c-0.9-10-1.8-19.9-2.9-29.8
	c-0.1-0.7-0.2-1.4-0.3-2.2c-0.7,0.4-0.9,1-1.1,1.5c-8,14.5-15.8,29-22.5,44.1c-0.5,1.1-1,1.7-2.4,1.6s-2.6,0.5-3.6-0.1
	s-1.2-2-1.7-3.1c-6.8-14.2-14.1-28.2-21.3-42.2c-0.2-0.4-0.3-0.9-0.9-1.1c-0.4,1.7-0.6,3.5-0.7,5.3c-1.1,10.3-2.3,20.7-3.1,31
	c-0.2,3.1-0.3,6.3-0.5,9.4c-0.1,0.9-0.3,1.2-1.3,1.1c-6.1-0.6-12.2-0.6-18.3-0.1c-1.4,0.1-2.9,0.5-4.2,0.2s-1.7-2-2.4-3.1
	c-6.7-9.7-14-19-21.7-28c-0.9-1-1.9-2-3.1-3.4c-0.1,11.8,0.2,23,0.8,34.5c-4.8-0.6-9.6-0.5-14.4,0.2c-0.3-0.1-0.5-0.5-0.4-0.8
	c0.5-7.8,0.8-15.6,0.8-23.3c0.1-11.6,0.1-23.2-0.2-34.8c-0.1-4.2-0.4-8.3-0.6-12.5c-0.1-1.3,0-1.4,1.3-1.3c6.5,0.3,13,0,19.5,0
	c1.7,0,3.3-0.1,5-0.2c4.8-0.4,9.7,0.2,14.3,1.7c7.4,2.7,10.6,8.1,10.3,15.7c-0.3,7.1-4.2,12-10.1,15.4c-3,1.7-6.3,3-9.8,3.6
	c-0.5,0.1-0.9,0.1-1.3,0.4c0.7,1.6,22.6,29.2,24.7,31.1c0.4-2.5,0.8-4.9,1.1-7.2c1.4-9.6,2.9-19.2,4.3-28.9c1-6.8,1.8-13.7,2.7-20.6
	c0.5-3.7,0.8-7.3,1.3-11c0.2-1.6,0.2-1.7,1.8-1.7s3.1-0.6,4.4,0.1s1.5,2.5,2.1,3.8c8,16.3,16.5,32.3,25.1,48.2
	C705.7,125.8,706.1,126.4,706.7,126.8z M622.6,95.3c0,2.2,0,6.4,0,10.7c0,1.8,0,1.8,1.7,2c3.8,0.5,7.7,0,11.3-1.5
	c5.7-2.3,9.3-6.3,9.9-12.6c0.7-6.8-2.1-12.5-9.3-14.7c-4-1.1-8.1-1.3-12.1-0.7c-0.9,0.1-0.8,0.7-0.9,1.3
	C623,84.3,622.9,88.8,622.6,95.3z"/>
<path class="st2" d="M393.2,146.8c-6.1-2-9.7-6-9.6-12.8c0.1-5.5,3.7-9.6,10.7-12.5c-0.3-0.8-1.1-0.8-1.7-1.2
	c-6.7-3.5-11.2-8.7-12.7-16.2c-1.3-6.6-0.7-13,2.9-18.8s9.1-9,15.5-10.7c5-1.2,10.1-1.5,15.2-1.1c7.9,0.4,15.8,1.4,23.7,1
	c2.4-0.1,4.8-0.3,7.3-0.5c-0.1,1.8-0.1,3.6,0,5.4c0.1,1-0.6,0.8-1.2,0.8c-3-0.3-6-0.6-9-0.8c-2.2-0.3-4.4-0.4-6.6-0.3
	c-0.3,0.6,0.3,0.7,0.5,0.9c6.3,4.6,9.3,10.8,9.5,18.4c0.2,7.1-2,13.4-7.4,18.2c-3.5,3-7.7,5-12.2,5.9c-5,1.2-10.1,1-15.2,0.7
	c-1.2-0.1-2.4-0.1-3.6,0.1c-5.7,1.2-8,6.7-5.3,11.9c0.7,1.2,1.8,2,3.2,2.4c1.6,0.5,3.3,0.7,5,0.7c6.8,0.3,13.6,0.2,20.3,0.7
	c3.8,0.2,7.6,1,11.2,2.4c8,3.2,12.2,9.4,11.8,18c-0.6,12.6-6.9,21.5-18.2,26.9c-5.2,2.3-10.7,3.6-16.4,3.6
	c-6.2,0.3-12.4-0.5-18.3-2.4c-3-1-5.8-2.5-8.3-4.4c-9.8-7.4-9.8-21.4-2.2-29.2c2.6-2.6,5.7-4.7,9.2-6
	C392,147.6,392.8,147.6,393.2,146.8z M411.2,147.9c-0.8,0-1.6,0-2.4,0c-4.7,0.2-9.4,0.8-13.7,2.9c-3.7,1.7-6.4,4.8-7.6,8.7
	c-0.8,2.7-1.1,5.5-0.9,8.4c0.5,8.1,5,13.9,12.7,16.2c7.1,2.1,14.6,1.9,21.5-0.6c5-1.6,9.1-5.1,11.5-9.8c1.6-3.5,2.2-7.4,1.7-11.2
	c-0.5-6.2-3.5-10.5-9.5-12.7C420.3,148.4,415.7,147.8,411.2,147.9z M391.4,99c-0.1,3.7,0.6,7.5,2,10.9c1.7,4.3,5.2,7.5,9.6,8.8
	c1.5,0.4,3,0.7,4.5,0.8c6.3,0.4,11.5-1.7,14.7-7.2c4.7-7.9,5.2-17.6,1.3-25.9c-1.9-4.3-5.8-7.4-10.5-8.3c-2.2-0.5-4.4-0.5-6.6-0.3
	c-5,0.5-9.4,3.3-11.9,7.7C392.1,89.5,391.3,93.9,391.4,99z"/>
<path class="st1" d="M122.1,12c-10,4.2-19.7,9.1-29,14.7c-7.1,4.1-13.8,8.9-20.1,14.1c-1.3,1.1-2.5,2.2-3.9,3.5
	c-0.2-1.4-0.2-2.9,0-4.3C69.5,34,71,28,73.4,22.4c3.2-7.2,9.1-12.9,16.5-15.7c8.2-3.1,16.8-5.2,25.6-6c6.3-0.7,12.6-0.9,18.9-0.6
	c3.5,0.1,6.9,0.3,10.3,0.9c0.2,0.3,0.2,0.7,0,1c-5.8,12-12,23.7-20,34.4c-1,1.3-2,2.5-3,3.8c-3.2,3.9-7.6,6.8-12.4,8.3
	c-6.5,2-13.1,3.4-19.8,4.3c-3.2,0.4-6.4,0.8-9.6,1.2c-0.6,0.1-1.1,0.1-1.7,0c0.2-0.9,0.6-1.7,1.2-2.4c4-6.6,9.3-12.2,14.9-17.3
	c8.3-7.6,17.4-14.1,26.7-20.4c0.6-0.4,1.1-0.8,1.6-1.2c0.6-0.1,1.1-0.6,1.3-1.2C123.2,11.3,122.6,11.5,122.1,12z"/>
<path class="st1" d="M547.9,74.3c0,2.2,0.1,4.2,0,6.2c-0.4,7.7-0.6,15.3-0.6,23c0,1.8,0,1.8,1.5,1.8c11.7,0.4,23.4,0.3,35,0.2
	c3.4,0,3.4-0.1,3.4-3.5c0-8.6-0.5-17.2-0.8-25.8c0-0.5,0-1.1,0-1.8c4.8,0.6,9.7,0.5,14.5-0.2c0.1,6.1-0.5,12-0.6,18
	c-0.1,6-0.2,12.2-0.2,18.3s0,12.1,0.2,18.1c0.2,6,0.4,12.1,0.7,18.1c-1.4,0.3-2.5-0.2-3.7-0.2c-3.2-0.1-6.4,0-9.6,0.4
	c-1.3,0.2-1.3,0.1-1.3-1.2c0.3-7.8,0.7-15.6,0.8-23.3c0-3.6,0-7.1,0-10.7c0-1.4,0-1.5-1.4-1.5c-12.4-0.1-24.7-0.4-37.1,0
	c-1.4,0-1.4,0-1.4,1.5c0,7.9-0.1,15.7,0.4,23.6c0.2,3.8,0.3,7.6,0.4,11.5c-1.3,0.4-2.4-0.1-3.6-0.2c-3.2-0.1-6.3,0-9.4,0.4
	c-1.6,0.2-1.6,0-1.5-1.4c0.2-3.7,0.3-7.4,0.4-11.1c0.5-16.2,0.4-32.4,0-48.5c-0.1-3.4-0.3-6.8-0.4-10.3c0-1.3,0-1.3,1.3-1.2
	C539.2,75.1,543.6,75,547.9,74.3z"/>
<path class="st2" d="M297.5,74.9c4.2,0.9,8.5,0.9,12.7,0c0.5,2.1-0.2,4-0.1,6c0,2,0,4,0,6.2c0.9-0.4,1.1-1.1,1.5-1.6
	c3.4-4.6,7.5-8.3,12.9-10.3c6.8-2.6,14.4-2.6,21.3,0c6.6,2.5,10.7,7.5,12.6,14.2c1.1,3.9,1.6,7.9,1.4,11.9
	c-0.3,12.4-0.8,24.8-0.6,37.2c0,2.8,0.2,5.6,0.2,8.4c0.1,0.5,0,1.1-0.3,1.5c-4-0.9-8.1-0.9-12.1,0c0-2.7-0.1-5.2,0-7.7
	c0.5-12.1,1-24.3,0.8-36.4c0-3.8-0.5-7.5-1.6-11.1c-0.6-2-1.5-3.9-2.7-5.6c-2.5-3.8-6.6-6.1-11.1-6.4c-2.6-0.2-5.3,0-7.8,0.6
	c-6.6,1.6-10.8,6-12.9,12.4c-1.2,4.1-1.8,8.4-1.7,12.7c0,10.9-0.1,21.9,0.5,32.8c0.1,2.5,0.4,5,0.6,7.4c0,0.4,0,0.8,0,1.3
	c-2.3-0.4-4.6-0.6-6.9-0.7c-2.2,0.1-4.5,0.3-6.7,0.7C299.1,124,299.1,99.4,297.5,74.9z"/>
<path class="st2" d="M494.8,110.5c-8.4-0.2-16.8-0.2-25.2,0.3c-1.6,0.1-1.6,0.1-1.7,1.5c-0.4,5.1,0.3,10.2,2.1,15.1
	c3.7,9.3,10.4,14.8,20.3,16.1s18.4-2.3,25.8-8.8c0.5-0.4,0.8-0.9,1.3-1.3c0.2-0.2,0.5-0.5,0.8-0.3s0.3,0.6,0.3,0.9
	c-0.2,1.9-0.5,3.9-0.7,5.8c-0.2,0.9-0.7,1.6-1.5,2c-5.5,4-11.8,6.7-18.6,7.8c-12.1,1.8-23-0.9-32.1-9.1c-6.1-5.5-10-13-10.9-21.2
	c-1.2-9,0-18.2,3.6-26.6c4.7-10.9,13.2-17.1,24.9-18.9c5.8-0.9,11.7-0.6,17.4,1c11.7,3.4,18.2,11.5,20.5,23.3
	c0.6,3.8,0.7,7.6,0.4,11.4c-0.1,1.4-0.1,1.4-1.6,1.4c-4.5-0.1-9-0.2-13.5-0.3C502.6,110.5,498.7,110.5,494.8,110.5z M488.6,105.5
	l18.9-0.4c1.6,0,1.6-0.1,1.6-1.6c0.1-5.4-1-10.7-3.2-15.6c-1.5-3.3-3.9-6-7.1-7.7c-7.9-4.1-17.5-2.1-23.2,4.8
	c-4.4,5.4-6.3,11.7-7.1,18.5c-0.2,1.6-0.2,1.6,1.4,1.6C476.1,105.2,482.4,105.4,488.6,105.5z"/>
<path class="st2" d="M280,143.3c0.2,3.4,0.5,3-2.5,4c-2.4,0.8-5,1.2-7.5,1.2c-5.3-0.1-8.8-2.9-10.1-8.1c-0.1-0.4-0.2-0.8-0.3-1.2
	c-0.7,0.2-1.1,0.8-1.5,1.2c-2.5,2.6-5.5,4.8-8.7,6.5c-7.5,3.7-15.3,4.8-23.1,1.3c-6.9-3-11-8.3-11.4-15.9
	c-0.5-7.9,2.6-14.1,9.5-18.2c3.9-2.1,8.2-3.5,12.6-4.1c5.5-0.9,11-1.7,16.4-3.2c1.3-0.3,2.6-0.8,3.7-1.5c1.6-0.8,2.6-2.4,2.6-4.2
	c0.3-3.6-0.1-7.3-1.3-10.7c-2.1-5.9-6.1-9.6-12.4-10.4c-6.3-1-12.8,0.6-17.9,4.5c-1.8,1.3-3.3,3-4.4,4.9c-0.3,0.5-0.5,0.9-1.2,0.9
	c-0.5,0-0.9-0.1-0.9-0.7c0-2.2,0-4.4,0-6.6c0-0.5,0.3-0.9,0.7-1.1c9.6-7.2,20.2-10.3,32-7.4c8.4,2,14.1,7.2,16.4,15.7
	c0.8,3.1,0.7,6.2,0.7,9.4c-0.1,11.2-0.6,22.4-0.6,33.6c0,1.7,0.1,3.5,0.4,5.2c0.8,4.1,3,5.7,7.1,5.3
	C278.9,143.5,279.4,143.4,280,143.3z M259.6,110c-0.3-0.1-0.7-0.1-1,0c-4.4,1.1-8.9,1.9-13.4,2.8c-3.2,0.6-6.2,1.6-9.2,2.9
	c-6.1,2.9-9.1,7.7-8.7,14.5c0.4,9,7.5,14.8,16.4,13.3c6-1,10.6-4.3,14.3-9c0.8-1,1.2-2.2,1.2-3.5c0.1-6.5,0.3-13,0.5-19.5
	C259.7,111.1,259.9,110.5,259.6,110L259.6,110z"/>
<path class="st2" d="M182.6,148.6c-4-0.9-8.1-0.9-12,0.1c0.6-24.6,0.6-49-0.1-73.7c4.1,0.9,8.3,0.9,12.4,0c-0.5,5-0.7,9.9-0.6,14.9
	c0.7-0.4,0.9-1,1.2-1.5c2.3-4.1,5.3-7.8,8.9-10.9c3.4-2.7,7.2-4.4,11.7-4.2c1,0.1,2,0.3,3,0.6c0.6,0.2,0.8,0.5,0.6,1.2
	c-0.6,3.1-0.9,6.2-0.8,9.4c0,0.3,0,0.7,0,1c-0.1,1.7-0.5,1.9-2,1.2c-4.3-2.4-9.5-2.3-13.6,0.2c-3,1.8-5.3,4.6-6.6,7.9
	c-1.6,3.9-2.4,8.1-2.2,12.4c0,8.1,0.1,16.1,0.1,24.2c0,5.4,0,10.9,0.5,16.3C183,148,182.9,148.4,182.6,148.6z"/>
<path class="st3" d="M122.1,12c0.5-0.5,1.1-0.7,1.8-0.7c-0.2,0.6-0.6,1.1-1.3,1.2L122.1,12z"/>
</svg>
